<svg width="24" height="24" viewBox="0 0 24 24" fill="none" xmlns="http://www.w3.org/2000/svg">
<path d="M22.4258 2.99853C22.425 2.17011 21.7527 1.49919 20.9243 1.5L7.42432 1.51319C6.5959 1.514 5.92498 2.18623 5.92579 3.01465C5.9266 3.84308 6.59883 4.514 7.42725 4.51319L19.4272 4.50146L19.439 16.5015C19.4398 17.3299 20.112 18.0008 20.9404 18C21.7689 17.9992 22.4398 17.327 22.439 16.4985L22.4258 2.99853ZM1.93829 19.9012C1.35308 20.4876 1.354 21.4373 1.94036 22.0225C2.52672 22.6078 3.47647 22.6068 4.06168 22.0205L1.93829 19.9012ZM19.8641 1.94038L1.93829 19.9012L4.06168 22.0205L21.9875 4.05962L19.8641 1.94038Z" fill="#0C0C0C"/>
</svg>
