<svg width="320" height="320" viewBox="0 0 320 320" fill="none" xmlns="http://www.w3.org/2000/svg">
<path fill-rule="evenodd" clip-rule="evenodd" d="M22.2439 99.2222C22.2439 85.2701 29.8154 72.9538 41.2598 66.4137C37.7925 53.6962 41.1472 39.6346 51.0132 29.7693C60.8785 19.9032 74.9402 16.5486 87.6577 20.0158C94.1978 8.57142 106.514 1 120.466 1C134.418 1 146.734 8.57067 153.275 20.0151C165.991 16.5486 180.055 19.904 189.92 29.7685C199.785 39.6346 203.141 53.6962 199.673 66.413C211.117 72.9538 218.688 85.2701 218.688 99.2215C218.688 113.173 211.117 125.489 199.673 132.03C203.141 144.747 199.785 158.809 189.919 168.675C183.324 175.27 174.851 178.939 166.161 179.622C169.651 197.57 173.58 222.781 176.666 256.116L197.732 238.562C195.028 225.958 193.117 201.739 211.576 183.28C241.752 153.105 285.486 155.601 287.334 155.722L297.253 156.372L297.903 166.29C298.024 168.136 300.52 211.873 270.345 242.048C257.842 254.551 243.185 257.905 231.049 257.905C223.696 257.905 217.274 256.672 212.815 255.497L178.879 283.777C179.615 294.595 180.252 306.114 180.763 318.333H158.078C155.516 258.105 149.721 215.594 144.735 188.634C138.146 194.153 129.662 197.444 120.466 197.444C106.514 197.444 94.1985 189.873 87.6577 178.429C74.9432 181.895 60.8778 178.54 51.0125 168.675C41.1472 158.809 37.7918 144.747 41.2598 132.03C29.8146 125.49 22.2439 113.174 22.2439 99.2222ZM154.466 99.2222C154.466 118 139.244 133.222 120.466 133.222C101.688 133.222 86.4662 118 86.4662 99.2222C86.4662 80.4444 101.688 65.2222 120.466 65.2222C139.244 65.2222 154.466 80.4444 154.466 99.2222Z" fill="#3300D9"/>
</svg>
