<svg width="1004" height="388" viewBox="0 0 1004 388" fill="none" xmlns="http://www.w3.org/2000/svg">
<path d="M117.242 112.124H95.5217V50.0352H0V325.911H117.242C180.695 325.911 231.413 278.036 231.413 219.359C231.413 160.681 180.695 112.124 117.242 112.124ZM109.964 245.513C95.5217 245.513 83.4678 233.801 83.4678 219.018C83.4678 204.234 95.5217 192.863 109.964 192.863C124.406 192.863 136.118 204.576 136.118 219.018C136.118 233.46 124.406 245.513 109.964 245.513Z" fill="#0C0C0C"/>
<path d="M244.149 325.911H343.082V196.274H392.094V112.124H244.149V325.911Z" fill="#0C0C0C"/>
<path d="M519.797 232.095C516.727 243.808 501.83 242.784 501.83 229.366V112.124H404.944V325.911H490.458L474.311 388H580.181L652.959 112.124H550.16L519.797 232.095Z" fill="#0C0C0C"/>
<path d="M919.51 112.124H853.327V162.159H777.479V325.911H1004V196.615C1004 153.517 962.609 112.124 919.51 112.124ZM890.512 262.457C876.753 262.457 865.381 251.427 865.381 237.667C865.381 223.907 876.753 212.536 890.512 212.536C904.272 212.536 915.303 223.566 915.303 237.667C915.303 251.768 904.272 262.457 890.512 262.457Z" fill="#0C0C0C"/>
<path d="M764.628 112.124H665.695V388H764.628V112.124Z" fill="#0C0C0C"/>
<path d="M715.276 0C688.097 0 665.695 22.5158 665.695 49.9215C665.695 77.3271 688.211 99.2743 715.276 99.2743C742.34 99.2743 764.628 77.0997 764.628 49.9215C764.628 22.7433 742.454 0 715.276 0Z" fill="#0C0C0C"/>
</svg>
