<?xml version="1.0" encoding="UTF-8"?>
<svg id="Warstwa_1" xmlns="http://www.w3.org/2000/svg" viewBox="0 0 1058.7 417.7">
  <defs>
    <style>
      .cls-1 {
        fill: #0c0c0c;
      }
    </style>
  </defs>
  <path class="cls-1" d="M190.1,141.6h-19.1v-54.6h-84v242.6h103.1c55.8,0,100.4-42.1,100.4-93.7s-44.6-94.3-100.4-94.3ZM183.7,258.9c-12.7,0-23.3-10.3-23.3-23.3s10.6-23,23.3-23,23,10.3,23,23-10.3,23.3-23,23.3Z"/>
  <polygon class="cls-1" points="301.7 329.6 388.7 329.6 388.7 215.6 431.8 215.6 431.8 141.6 301.7 141.6 301.7 329.6"/>
  <path class="cls-1" d="M544.1,247.1c-2.7,10.3-15.8,9.4-15.8-2.4v-103.1h-85.2v188h75.2l-14.2,54.6h93.1l64-242.6h-90.4l-26.7,105.5Z"/>
  <path class="cls-1" d="M895.6,141.6h-58.2v44h-66.7v144h199.2v-113.7c0-37.9-36.4-74.3-74.3-74.3ZM870.1,273.8c-12.1,0-22.1-9.7-22.1-21.8s10-22.1,22.1-22.1,21.8,9.7,21.8,22.1-9.7,21.8-21.8,21.8Z"/>
  <rect class="cls-1" x="672.4" y="141.6" width="87" height="242.6"/>
  <path class="cls-1" d="M716,43c-23.9,0-43.6,19.8-43.6,43.9s19.8,43.4,43.6,43.4,43.4-19.5,43.4-43.4-19.5-43.9-43.4-43.9Z"/>
</svg>